<?xml version="1.0" encoding="UTF-8"?>
<!DOCTYPE svg PUBLIC "-//W3C//DTD SVG 1.1//EN" "http://www.w3.org/Graphics/SVG/1.1/DTD/svg11.dtd">
<svg xmlns="http://www.w3.org/2000/svg" xmlns:xlink="http://www.w3.org/1999/xlink" version="1.1"
     width="360px" height="360px">
  <defs>
    <symbol id="icon" viewBox="0 0 306 276">
      <path d="m303.935 88.479c-6.598 41.362-27.653 79.041-59.42 106.335s-72.185 42.433-114.064 42.723c-8.483.326-16.977-.19-25.358-1.539a77.723 77.723 0 0 1 -64.63-73.266 75.479 75.479 0 0 1 22.14-52.762 75.46 75.46 0 0 1 105.885-.748 75.478 75.478 0 0 1 22.884 52.443c.317 12.51-5.102 23.483-16.239 23.8-11.899 0-17.477-8.491-17.477-19.934v-31.797a19.478 19.478 0 0 0 -19.323-19.494h-26.653a46.386 46.386 0 0 0 -39.119 20.961 46.399 46.399 0 0 0 31.587 71.268 46.392 46.392 0 0 0 41.8-14.911l.932-1.39.933 1.543a32.82 32.82 0 0 0 27.986 13.328 36.992 36.992 0 0 0 34.268-38.671 100.64 100.64 0 0 0 -2.761-24.577c-4.943-22.734-18.126-42.834-37.008-56.423a94.153 94.153 0 0 0 -125.236 13.718 94.175 94.175 0 0 0 -23.92 63.097 95.352 95.352 0 0 0 27.473 65.824 95.331 95.331 0 0 0 65.448 28.344s6.98.635 14.849.454a200.94 200.94 0 0 0 107.769-32.155c.457-.318.914.317.61.78a158.177 158.177 0 0 1 -123.225 50.396 111.185 111.185 0 0 1 -80.961-32.871 111.215 111.215 0 0 1 -32.215-81.232 115.099 115.099 0 0 1 46.223-92.17 112.704 112.704 0 0 1 66.497-21.953h35.772a100.637 100.637 0 0 0 74.247-32.784 1.39 1.39 0 0 1 .755-.431 1.418 1.418 0 0 1 1.52.663c.153.257.222.555.197.854a100.93 100.93 0 0 1 -15.608 45.14 1.386 1.386 0 0 0 .115 1.511 1.387 1.387 0 0 0 1.424.507 108.158 108.158 0 0 0 75.198-62.013c.173-.277.411-.507.695-.67a1.902 1.902 0 0 1 1.869 0c.284.162.523.392.694.67a137.098 137.098 0 0 1 13.447 87.432zm-189.964 44.858a27.823 27.823 0 0 0 -27.293 33.255 27.83 27.83 0 0 0 21.862 21.865 27.824 27.824 0 0 0 33.251-27.296v-25.977a2.007 2.007 0 0 0 -1.904-1.904z" />
    </symbol>
    <symbol id="puzzle" viewBox="-10 -15 530 530">
      <path d="M423.658,234.356c-12.438-0.003-24.01,3.457-33.869,9.468c-3.709,2.262-8.354,2.345-12.141,0.216    s-6.121-6.137-6.121-10.482V155.4c0-12.027-10.109-21.7-22.139-21.7h-95.748c-4.252,0-8.188-2.248-10.349-5.909    c-2.161-3.662-2.23-8.196-0.172-11.917c5.22-9.429,8.19-20.296,8.19-31.821c0-36.233-29.374-65.627-65.617-65.627    c-36.232,0-65.601,29.404-65.601,65.638c0,11.523,2.97,22.385,8.187,31.811c2.061,3.723,1.999,8.258-0.163,11.923    c-2.163,3.665-6.102,5.902-10.356,5.902H22.014c-12.032,0-22.013,9.673-22.013,21.7v76.237c0,4.231,2.226,8.15,5.859,10.318    c3.633,2.168,8.143,2.27,11.864,0.257c9.267-5.012,19.876-7.858,31.151-7.855c36.239-0.005,65.612,29.377,65.612,65.612    c0,36.238-29.373,65.616-65.612,65.606c-11.276,0-21.885-2.847-31.152-7.857c-3.725-2.014-8.234-1.92-11.871,0.25    C2.216,360.139,0,364.061,0,368.294v80.76c0,12.033,9.98,21.784,22.013,21.784h327.375c12.027,0,22.139-9.751,22.139-21.784    v-82.681c0-4.342,2.344-8.346,6.127-10.475c3.783-2.127,8.426-2.053,12.135,0.207c9.857,6.011,21.432,9.47,33.867,9.47    c36.24,0.01,65.607-29.368,65.607-65.606C489.264,263.734,459.896,234.351,423.658,234.356z" />
    </symbol>
  </defs>
  <rect width="100%" height="100%" style="fill: none;" />
  <use xlink:href="#puzzle" stroke="#aaa" stroke-width="10%" fill="#fff" x="0%" y="0%" width="100%" height="100%" />
  <rect width="30%" height="45%" style="fill: #fff;" x="10%" y="38%" />
  <use xlink:href="#icon" fill="#702af7" x="5%" y="10%" width="85%" height="85%" />
</svg>