<?xml version="1.0" encoding="UTF-8"?>
<!DOCTYPE svg PUBLIC "-//W3C//DTD SVG 1.1//EN" "http://www.w3.org/Graphics/SVG/1.1/DTD/svg11.dtd">
<svg xmlns="http://www.w3.org/2000/svg" xmlns:xlink="http://www.w3.org/1999/xlink" version="1.1"
     width="360px" height="360px">
  <defs>
    <symbol id="icon" viewBox="0 0 306 276">
      <path d="m303.935 88.479c-6.598 41.362-27.653 79.041-59.42 106.335s-72.185 42.433-114.064 42.723c-8.483.326-16.977-.19-25.358-1.539a77.723 77.723 0 0 1 -64.63-73.266 75.479 75.479 0 0 1 22.14-52.762 75.46 75.46 0 0 1 105.885-.748 75.478 75.478 0 0 1 22.884 52.443c.317 12.51-5.102 23.483-16.239 23.8-11.899 0-17.477-8.491-17.477-19.934v-31.797a19.478 19.478 0 0 0 -19.323-19.494h-26.653a46.386 46.386 0 0 0 -39.119 20.961 46.399 46.399 0 0 0 31.587 71.268 46.392 46.392 0 0 0 41.8-14.911l.932-1.39.933 1.543a32.82 32.82 0 0 0 27.986 13.328 36.992 36.992 0 0 0 34.268-38.671 100.64 100.64 0 0 0 -2.761-24.577c-4.943-22.734-18.126-42.834-37.008-56.423a94.153 94.153 0 0 0 -125.236 13.718 94.175 94.175 0 0 0 -23.92 63.097 95.352 95.352 0 0 0 27.473 65.824 95.331 95.331 0 0 0 65.448 28.344s6.98.635 14.849.454a200.94 200.94 0 0 0 107.769-32.155c.457-.318.914.317.61.78a158.177 158.177 0 0 1 -123.225 50.396 111.185 111.185 0 0 1 -80.961-32.871 111.215 111.215 0 0 1 -32.215-81.232 115.099 115.099 0 0 1 46.223-92.17 112.704 112.704 0 0 1 66.497-21.953h35.772a100.637 100.637 0 0 0 74.247-32.784 1.39 1.39 0 0 1 .755-.431 1.418 1.418 0 0 1 1.52.663c.153.257.222.555.197.854a100.93 100.93 0 0 1 -15.608 45.14 1.386 1.386 0 0 0 .115 1.511 1.387 1.387 0 0 0 1.424.507 108.158 108.158 0 0 0 75.198-62.013c.173-.277.411-.507.695-.67a1.902 1.902 0 0 1 1.869 0c.284.162.523.392.694.67a137.098 137.098 0 0 1 13.447 87.432zm-189.964 44.858a27.823 27.823 0 0 0 -27.293 33.255 27.83 27.83 0 0 0 21.862 21.865 27.824 27.824 0 0 0 33.251-27.296v-25.977a2.007 2.007 0 0 0 -1.904-1.904z" />
    </symbol>
    <symbol id="puzzle" viewBox="0 0 10240 10240">
      <path d="M11 10227 c-16 -20 -16 -10194 0 -10213 16 -19 10198 -21 10217 -2 18 18 17 9592 0 9582 -10 -6 -10 -4 0 7 17 18 18 609 0 627 -19 19 -10201 17 -10217 -1z m6789 -585 c0 -301 5 -580 10 -621 20 -152 59 -170 204 -97 50 25 118 53 151 61 86 22 228 19 308 -5 227 -70 374 -304 339 -538 -30 -192 -168 -352 -351 -406 -69 -20 -202 -21 -289 -1 -37 9 -111 38 -165 64 -110 56 -139 56 -170 4 -30 -53 -37 -180 -37 -736 l0 -538 -597 3 c-667 4 -675 5 -681 64 -2 21 10 54 37 106 179 330 55 701 -273 816 -82 29 -219 35 -296 13 -184 -53 -328 -197 -375 -376 -35 -136 -9 -315 66 -453 27 -52 39 -85 37 -106 -6 -59 -14 -60 -680 -64 l-597 -3 -3 585 c-2 430 -6 588 -15 597 -6 6 -9 18 -6 25 7 20 -6 66 -17 59 -5 -3 -7 0 -4 8 3 8 -2 19 -10 26 -27 23 -72 15 -149 -28 -137 -76 -329 -103 -458 -65 -184 54 -325 217 -351 408 -33 235 113 466 339 536 80 24 222 27 308 5 33 -8 101 -36 151 -61 148 -75 186 -55 204 107 6 46 10 326 10 621 l0 538 1143 2 c628 2 1384 2 1680 0 l537 -2 0 -548z m-3392 -49 c-4 -686 -3 -679 -73 -677 -26 1 -59 12 -92 32 -93 56 -182 77 -318 77 -142 0 -197 -15 -297 -82 -122 -80 -194 -189 -224 -337 -30 -143 5 -287 99 -412 58 -76 141 -138 234 -175 50 -20 76 -23 183 -23 146 0 199 13 331 81 71 37 90 43 107 34 45 -24 46 -40 50 -678 l3 -602 -603 -3 c-625 -4 -643 -5 -690 -46 -30 -25 -22 -77 22 -157 100 -181 107 -412 17 -564 -104 -177 -309 -275 -504 -242 -247 42 -415 243 -414 496 0 113 19 186 76 300 50 98 55 135 26 164 -43 43 -69 45 -693 48 l-598 4 -1 1297 c0 713 0 1330 0 1371 0 41 -5 83 -11 94 -7 14 -7 17 1 13 8 -5 11 76 11 288 l0 296 1681 0 1680 0 -3 -597z m6783 265 c0 -183 0 -353 1 -378 0 -25 0 -631 -1 -1347 l-1 -1303 -547 0 c-302 0 -581 -5 -622 -10 -152 -20 -170 -59 -97 -204 58 -115 77 -188 77 -301 1 -253 -167 -454 -414 -496 -177 -29 -368 49 -471 195 -66 91 -88 154 -94 267 -6 126 15 224 74 335 48 91 56 141 27 166 -48 41 -66 42 -691 46 l-603 3 4 597 c3 629 5 660 49 683 17 9 34 4 102 -31 112 -59 184 -80 301 -87 75 -4 116 -1 162 10 177 46 310 168 371 341 70 197 3 435 -161 567 -116 93 -217 125 -374 116 -114 -6 -206 -32 -294 -83 -42 -25 -69 -34 -92 -32 -61 6 -61 11 -65 681 l-3 597 1680 0 1681 0 1 -332z m-4970 -2052 c174 -37 318 -167 369 -333 43 -140 19 -324 -61 -470 -72 -131 -46 -175 112 -193 46 -6 326 -10 622 -10 l538 0 -3 -602 c-3 -542 -5 -607 -20 -640 -23 -50 -49 -50 -150 3 -187 96 -395 106 -553 27 -198 -100 -316 -321 -285 -539 24 -168 134 -321 285 -397 157 -79 365 -69 552 27 111 57 127 57 151 4 15 -34 17 -99 20 -640 l3 -603 -548 0 c-301 0 -581 -5 -622 -10 -148 -19 -173 -65 -102 -193 110 -199 110 -432 0 -596 -104 -156 -303 -243 -487 -211 -84 14 -187 62 -249 115 -181 155 -216 449 -82 692 71 128 46 174 -102 193 -41 5 -320 10 -621 10 l-548 0 0 135 c0 101 -3 135 -12 136 -10 0 -10 2 -1 6 9 3 12 104 13 421 1 406 6 518 29 561 17 32 58 26 144 -19 182 -96 394 -107 552 -28 151 76 259 226 285 397 34 214 -86 439 -287 540 -154 77 -367 66 -551 -28 -101 -53 -127 -53 -150 -3 -15 33 -17 98 -20 640 l-3 602 548 0 c301 0 581 5 622 10 149 20 173 65 101 194 -78 143 -102 331 -60 469 51 164 195 295 364 332 80 18 127 18 207 1z m-3936 -1026 c56 -21 57 -48 4 -152 -56 -110 -79 -201 -79 -314 0 -91 23 -200 40 -189 4 3 6 -4 3 -14 -11 -41 96 -179 184 -237 162 -107 347 -119 523 -32 285 140 373 476 206 792 -51 98 -51 120 3 145 32 14 106 16 639 19 l602 3 0 -553 c0 -316 5 -583 10 -622 22 -147 58 -163 203 -92 117 58 188 76 303 76 207 0 369 -101 455 -285 124 -263 -20 -589 -298 -675 -80 -25 -222 -27 -308 -5 -33 8 -101 35 -151 60 -97 48 -142 55 -166 28 -39 -44 -42 -79 -45 -696 l-4 -598 -602 3 c-532 3 -606 5 -638 19 -54 25 -54 45 2 156 160 317 72 643 -211 781 -242 119 -516 47 -663 -176 -62 -93 -79 -148 -85 -269 -5 -129 14 -215 75 -335 55 -109 55 -137 -2 -158 -33 -12 -138 -15 -637 -18 l-598 -3 -1 896 c-1 492 -1 906 -1 920 0 14 0 367 1 785 l1 761 598 -3 c499 -3 604 -6 637 -18z m6783 1 c59 -24 59 -40 2 -154 -128 -257 -102 -512 70 -688 72 -74 194 -134 302 -149 178 -25 357 45 468 183 87 107 120 200 120 342 0 112 -23 203 -79 313 -53 104 -52 131 4 152 33 12 138 15 638 18 l597 3 1 -746 c0 -410 0 -770 0 -800 0 -30 0 -451 0 -935 l-1 -881 -597 3 c-500 3 -605 6 -638 18 -55 21 -56 48 -6 148 98 195 109 399 30 557 -130 260 -436 362 -699 233 -226 -110 -331 -346 -275 -612 14 -68 64 -187 90 -216 17 -19 21 -48 12 -81 -5 -22 -14 -28 -49 -33 -23 -4 -46 -12 -50 -19 -4 -7 -8 -7 -8 -2 0 7 -200 9 -585 7 l-585 -3 0 553 c0 316 -5 583 -10 622 -22 147 -58 163 -203 92 -117 -58 -188 -76 -303 -76 -207 0 -369 101 -455 285 -124 265 19 589 298 675 80 25 222 27 308 5 33 -8 101 -36 152 -61 145 -71 181 -55 203 92 5 39 10 303 10 615 0 300 3 549 7 553 4 4 275 6 603 4 464 -3 602 -7 628 -17z m-6237 -2365 c121 -26 224 -93 293 -190 66 -91 88 -154 94 -267 6 -126 -15 -224 -74 -335 -48 -91 -56 -141 -26 -166 47 -41 65 -42 690 -46 l603 -3 -4 -597 c-3 -628 -5 -660 -48 -683 -18 -9 -36 -3 -108 34 -132 68 -185 81 -331 81 -107 0 -133 -3 -183 -23 -93 -37 -176 -99 -234 -175 -94 -125 -129 -269 -100 -411 31 -149 103 -258 225 -338 101 -68 188 -91 320 -84 123 5 212 30 303 83 42 25 69 34 92 32 60 -6 61 -11 65 -680 l3 -598 -1680 0 -1681 0 -1 438 c0 240 -1 451 -1 467 0 17 0 576 1 1243 l1 1212 548 0 c301 0 580 5 621 10 152 20 170 59 97 204 -58 115 -77 187 -77 301 -1 195 99 363 264 446 108 55 213 69 328 45z m6780 0 c235 -50 391 -246 390 -491 0 -114 -19 -186 -77 -301 -73 -145 -55 -184 97 -204 41 -5 320 -10 622 -10 l547 0 0 -1680 0 -1680 -1681 0 -1680 0 3 598 c4 669 5 674 65 680 23 2 50 -7 92 -32 91 -53 180 -78 303 -83 91 -5 117 -2 180 17 137 41 257 141 318 265 91 182 71 386 -53 551 -96 126 -225 193 -387 201 -129 7 -219 -13 -347 -77 -84 -42 -106 -49 -122 -40 -42 22 -45 56 -48 682 l-4 597 603 3 603 3 50 25 c70 35 71 65 11 182 -59 116 -80 212 -74 337 11 194 115 348 292 426 100 44 190 53 297 31z m-3936 -1026 c57 -21 58 -54 6 -152 -132 -243 -102 -517 74 -693 99 -99 221 -148 365 -148 144 0 266 49 365 148 176 176 206 450 74 693 -27 52 -39 85 -37 106 6 59 14 60 680 64 l597 3 4 -598 c4 -624 6 -652 48 -694 29 -29 70 -23 164 25 104 54 195 76 308 76 96 0 168 -18 246 -62 173 -99 276 -314 242 -507 -34 -190 -177 -350 -355 -397 -68 -18 -217 -18 -291 1 -33 8 -101 36 -151 61 -147 74 -183 56 -204 -107 -5 -41 -10 -318 -10 -616 l0 -543 -1680 0 -1680 0 0 538 c0 318 -4 572 -11 622 -20 163 -55 181 -203 106 -50 -25 -118 -53 -151 -61 -76 -20 -204 -22 -275 -5 -241 56 -409 304 -372 548 30 192 168 352 351 406 70 20 202 21 291 0 37 -8 108 -35 156 -60 146 -76 186 -55 204 107 6 46 10 326 10 622 l0 538 598 -3 c496 -3 604 -6 637 -18z" />
    </symbol>
  </defs>
  <rect width="100%" height="100%" style="fill: #702af7;" />
  <use xlink:href="#icon" fill="#ffffff" x="5%" y="5%" width="90%" height="90%" />
  <use xlink:href="#puzzle" stroke="#999999" stroke-width="2%" x="-2%" y="-2%" width="104%" height="104%" />
</svg>